<?xml version="1.0" encoding="UTF-8"?>
<svg width="240px" height="74px" viewBox="0 0 240 74" version="1.1" xmlns="http://www.w3.org/2000/svg" xmlns:xlink="http://www.w3.org/1999/xlink">
    <title>LOGO</title>
    <g id="Page-1" stroke="none" stroke-width="1" fill="none" fill-rule="evenodd">
        <g id="ANA-SAYFA" transform="translate(-165.000000, -20.000000)">
            <g id="LOGO---SOSYAL-MEDYA" transform="translate(165.000000, 20.000000)">
                <g id="LOGO">
                    <g id="Group">
                        <g id="Group-13">
                            <path d="M73.4396044,55.5455385 L73.4396044,61.0214071 L81.1772747,61.0214071 L81.1772747,55.8103183 C80.3066813,55.9325716 79.4167912,56.0148473 78.4866813,56.0148473 C76.6686154,56.0148473 74.989011,55.8538864 73.4396044,55.5455385" id="Fill-1" fill="#DC2B1C"></path>
                            <polygon id="Fill-2" fill="#DC2B1C" points="45.6147253 5.87450533 37.8770989 5.87450533 37.8770989 11.3835645 45.6147253 11.3835645"></polygon>
                            <polygon id="Fill-3" fill="#DC2B1C" points="145.281363 5.87450533 153.019033 5.87450533 153.019033 11.3835645 145.281363 11.3835645"></polygon>
                            <polygon id="Fill-4" fill="#273C79" points="175.29011 15.0446379 159.944923 55.4330935 153.050681 55.4330935 172.70167 5.49890059 178.073319 5.49890059 197.618549 55.5125231 190.426242 55.5125231"></polygon>
                            <path d="M37.2076044,30.2157763 C37.2076044,24.4207006 36.2061978,19.501058 34.2006593,15.4533893 C31.8595604,10.7170391 28.3097143,7.72686982 23.5456264,6.48502722 C21.7491429,6.02592071 19.0967912,5.7955574 15.5881758,5.7955574 L0.107296703,5.7955574 L0.107296703,11.6452355 L6.96962637,11.6452355 L6.96962637,11.659116 L15.4624615,11.659116 C19.0541978,11.659116 21.6246593,11.9830959 23.1704615,12.6270272 C28.435033,14.8387077 31.0668571,20.6893929 31.0668571,30.1805278 C31.0668571,37.4598071 29.5825055,42.7126249 26.617011,45.9376237 C24.4442198,48.2873645 20.7884835,49.4617751 15.6492308,49.4617751 L6.06215385,49.4617751 L6.06215385,17.1543385 L0.107296703,17.1543385 L0.107296703,55.1864852 L16.2773626,55.1864852 C18.9928791,55.1864852 21.4147253,54.9115467 23.5456264,54.3600935 C28.2670769,53.1179882 31.8184176,50.0604308 34.2006593,45.1853195 C36.2061978,41.0457858 37.2076044,36.0568722 37.2076044,30.2157763" id="Fill-5" fill="#273C79"></path>
                            <path d="M239.909846,30.2157763 C239.909846,24.4207006 238.907297,19.501058 236.902857,15.4533893 C234.561758,10.7170391 231.010901,7.72686982 226.247824,6.48502722 C224.451341,6.02592071 221.798022,5.7955574 218.290286,5.7955574 L202.809495,5.7955574 L202.809495,43.9628746 L208.764352,43.9628746 L208.764352,11.659116 L218.163912,11.659116 C221.756396,11.659116 224.326901,11.9830959 225.872659,12.6270272 C231.137275,14.8387077 233.769055,20.6893929 233.769055,30.1805278 C233.769055,37.4598071 232.284703,42.7126249 229.319209,45.9376237 C227.145319,48.2873645 223.490681,49.4617751 218.351429,49.4617751 L209.671824,49.4617751 L209.671824,49.4727219 L202.809495,49.4727219 L202.809495,55.1864852 L218.979429,55.1864852 C221.695077,55.1864852 224.116923,54.9115467 226.247824,54.3600935 C230.968176,53.1179882 234.519912,50.0604308 236.902857,45.1853195 C238.907297,41.0457858 239.909846,36.0568722 239.909846,30.2157763" id="Fill-6" fill="#273C79"></path>
                            <polygon id="Fill-7" fill="#273C79" points="51.5684835 11.1207988 45.6147253 11.1207988 45.6147253 55.1877112 51.5684835 55.1877112"></polygon>
                            <polygon id="Fill-8" fill="#273C79" points="51.5684835 0.365402367 45.6147253 0.365402367 45.6147253 5.87450533 51.5684835 5.87450533"></polygon>
                            <polygon id="Fill-9" fill="#273C79" points="139.328396 11.1207988 145.282505 11.1207988 145.282505 55.1877112 139.328396 55.1877112"></polygon>
                            <polygon id="Fill-10" fill="#273C79" points="139.328396 0.365402367 145.282505 0.365402367 145.282505 5.87450533 139.328396 5.87450533"></polygon>
                            <path d="M62.8285714,48.151187 C65.7717363,53.393671 70.9897582,56.0153728 78.4859341,56.0153728 C81.5061099,56.0153728 84.2151209,55.3706533 86.6090989,54.0841479 C88.8451429,52.8885006 90.6503297,51.1524343 92.0241758,48.8759491 C93.3971429,46.5992012 94.0848352,44.0589432 94.0848352,41.2530734 C94.0848352,35.7340746 91.6897582,31.7109266 86.9035165,29.180871 C85.1758242,28.2611254 82.055956,27.2042391 77.543956,26.007716 C74.326022,25.1350414 72.1873846,24.421445 71.1283077,23.8689846 C68.7332308,22.5826107 67.5368352,20.6736296 67.5368352,18.143574 C67.5368352,15.4310142 68.6358242,13.4303432 70.8338901,12.1420864 C72.5208352,11.1759266 74.6399121,10.6937006 77.1908132,10.6937006 C83.508044,10.6937006 86.9221978,13.8671183 87.4323077,20.2127716 L92.7897143,19.7305456 C92.7498462,16.8794 92.0634286,14.2808178 90.7293626,11.9347988 C88.1001758,7.29083905 83.508044,4.96815858 76.955956,4.96815858 C74.0507692,4.96815858 71.4803077,5.51961183 69.2443516,6.62378817 C64.4960879,8.96871243 62.1225934,12.9471101 62.1225934,18.557142 C62.1225934,23.2027219 64.1236923,26.7905396 68.1257143,29.3188876 C69.7746374,30.377613 72.3443956,31.3657538 75.8373187,32.284974 C79.5255824,33.2971976 82.1545055,34.1476722 83.7244835,34.837142 C87.0207473,36.3094793 88.6678242,38.6314154 88.6678242,41.804658 C88.6678242,43.368729 88.2766154,44.7705254 87.4916044,46.0127183 C85.7637802,48.7720426 82.684044,50.1519018 78.251033,50.1519018 C75.816,50.1519018 73.6589011,49.6689314 71.7758242,48.7027716 C68.2436923,46.9093882 66.2425055,43.5982166 65.7717363,38.7693006 L60.5330989,39.3217609 C60.5710769,42.5874817 61.3364835,45.529529 62.8285714,48.151187" id="Fill-11" fill="#273C79"></path>
                            <path d="M101.071648,48.151187 C104.014681,53.393671 109.233055,56.0153728 116.729231,56.0153728 C119.749143,56.0153728 122.458198,55.3706533 124.852132,54.0841479 C127.08844,52.8885006 128.893407,51.1524343 130.267473,48.8759491 C131.639429,46.5992012 132.327736,44.0589432 132.327736,41.2530734 C132.327736,35.7340746 129.932923,31.7109266 125.146813,29.180871 C123.418857,28.2611254 120.299253,27.2042391 115.786989,26.007716 C112.568967,25.1350414 110.430462,24.421445 109.371604,23.8689846 C106.976527,22.5826107 105.779868,20.6736296 105.779868,18.143574 C105.779868,15.4310142 106.879121,13.4303432 109.076923,12.1420864 C110.764132,11.1759266 112.883209,10.6937006 115.43411,10.6937006 C121.751341,10.6937006 125.165231,13.8671183 125.675341,20.2127716 L131.032879,19.7305456 C130.992923,16.8794 130.306374,14.2808178 128.972396,11.9347988 C126.343473,7.29083905 121.751341,4.96815858 115.198989,4.96815858 C112.294066,4.96815858 109.723604,5.51961183 107.487385,6.62378817 C102.739385,8.96871243 100.365626,12.9471101 100.365626,18.557142 C100.365626,23.2027219 102.366725,26.7905396 106.368967,29.3188876 C108.017934,30.377613 110.587429,31.3657538 114.080615,32.284974 C117.768615,33.2971976 120.397802,34.1476722 121.96778,34.837142 C125.26378,36.3094793 126.910901,38.6314154 126.910901,41.804658 C126.910901,43.368729 126.519912,44.7705254 125.734901,46.0127183 C124.006857,48.7720426 120.927341,50.1519018 116.49411,50.1519018 C114.059297,50.1519018 111.901978,49.6689314 110.018901,48.7027716 C106.486989,46.9093882 104.485802,43.5982166 104.014681,38.7693006 L98.7753846,39.3217609 C98.8143736,42.5874817 99.5797802,45.529529 101.071648,48.151187" id="Fill-12" fill="#273C79"></path>
                        </g>
                        <path d="M0.107384615,72.0703515 L0.107384615,65.4584296 L2.05802198,65.4584296 C3.07050549,65.4584296 3.90435165,65.7418189 4.55301099,66.3088166 C5.23556044,66.911413 5.57410989,67.71 5.57410989,68.7053219 C5.57410989,69.7990769 5.26224176,70.6398746 4.62874725,71.2292036 C4.02008791,71.7892391 3.16184615,72.0703515 2.05802198,72.0703515 L0.107384615,72.0703515 Z M1.05274725,66.2930533 L1.05274725,71.2335385 L2.04716484,71.2335385 C3.73002198,71.2335385 4.5752967,70.4081101 4.5752967,68.7455183 C4.5752967,68.0046426 4.35226374,67.4109787 3.91068132,66.9647893 C3.47371429,66.5142213 2.89182418,66.2930533 2.16079121,66.2930533 L1.05274725,66.2930533 Z" id="Fill-14" fill="#273C79"></path>
                        <path d="M7.99454945,72.0694757 L6.99454945,72.0694757 L6.99454945,65.4572036 L7.99454945,65.4572036 L7.99454945,72.0694757 Z M7.98538618,64.8729538 L6.99690969,64.8729538 L6.99690969,63.8777633 L7.98538618,63.8777633 L7.98538618,64.8729538 Z" id="Fill-15" fill="#273C79"></path>
                        <path d="M12.7614945,65.5809456 L12.6303297,66.4510367 C12.1595604,66.2701964 11.7496264,66.1787254 11.3904176,66.1787254 C10.6214066,66.1787254 10.2376264,66.4711349 10.2376264,67.0605953 C10.2376264,67.3928509 10.4830769,67.6941053 10.9712527,67.9599799 C11.8317363,68.4214509 12.2867692,68.669329 12.3357363,68.7051905 C12.823956,69.0843858 13.0738901,69.5883302 13.0738901,70.2136521 C13.0738901,70.8897231 12.8284396,71.3959006 12.3446154,71.7378331 C11.9254505,72.0386935 11.3658901,72.1814391 10.6616264,72.1814391 C10.3203516,72.1814391 9.86769231,72.094697 9.30808791,71.9068947 L9.40167033,71.0276083 C9.928,71.2422083 10.3829011,71.3494426 10.7727912,71.3494426 C11.121011,71.3494426 11.4148571,71.2579716 11.6647912,71.0748982 C11.9367912,70.8809219 12.068,70.6103183 12.068,70.2692178 C12.068,69.8676911 11.8254066,69.5309692 11.3323516,69.2543231 C11.0295824,69.0996675 10.5741538,68.8610722 9.97046154,68.5375302 C9.47731868,68.1893361 9.23235165,67.7252817 9.23235165,67.142871 C9.23235165,66.5561692 9.44628571,66.0985515 9.86545055,65.7793006 C10.2513407,65.4917077 10.7438681,65.346729 11.3523956,65.346729 C11.8454505,65.346729 12.3135824,65.4246698 12.7614945,65.5809456 Z M9.47731868,73.9066024 L10.3203516,72.5431195 L11.3523956,72.5431195 L10.1151209,73.9066024 L9.47731868,73.9066024 Z" id="Fill-16" fill="#273C79"></path>
                        <polygon id="Fill-17" fill="#273C79" points="17.0071209 72.0703515 17.0071209 65.4584296 18.569978 65.4584296 20.6434286 70.9502805 22.679033 65.4584296 24.2396484 65.4584296 24.2396484 72.0703515 23.2946813 72.0703515 23.2946813 66.3508959 23.2745055 66.3508959 21.0892747 72.0703515 20.1597363 72.0703515 17.9726593 66.3508959 17.956967 66.3508959 17.956967 72.0703515"></polygon>
                        <path d="M25.2067692,72.0703515 L28.0244835,65.4584296 L29.0189011,65.4584296 L31.8125714,72.0703515 L30.7827692,72.0703515 L30.1047033,70.4034249 L26.8699341,70.4034249 L26.198989,72.0703515 L25.2067692,72.0703515 Z M29.8063736,69.6270379 L28.4908571,66.3508959 L27.1753407,69.6270379 L29.8063736,69.6270379 Z" id="Fill-18" fill="#273C79"></path>
                        <polygon id="Fill-19" fill="#273C79" points="32.7574066 72.0703515 32.7574066 65.4584296 33.7072527 65.4584296 33.7072527 71.2335385 36.4671209 71.2335385 36.4671209 72.0703515"></polygon>
                        <polygon id="Fill-20" fill="#273C79" points="36.9616703 72.0703515 36.9616703 71.2203586 40.3883956 66.2930533 37.0754286 66.2930533 37.0754286 65.4584296 41.4763956 65.4584296 41.4763956 66.3088166 38.0606154 71.2335385 41.5342418 71.2335385 41.5342418 72.0703515"></polygon>
                        <polygon id="Fill-21" fill="#273C79" points="42.8117363 72.0703515 42.8117363 65.4584296 46.5128791 65.4584296 46.5128791 66.2930533 43.7572308 66.2930533 43.7572308 68.2209941 46.2652747 68.2209941 46.2652747 69.055574 43.7572308 69.055574 43.7572308 71.2335385 46.5128791 71.2335385 46.5128791 72.0703515"></polygon>
                        <polygon id="Fill-22" fill="#273C79" points="48.0373187 72.0703515 48.0373187 65.4584296 49.5979341 65.4584296 51.6736703 70.9502805 53.7067692 65.4584296 55.2653626 65.4584296 55.2653626 72.0703515 54.320044 72.0703515 54.320044 66.3508959 54.3047033 66.3508959 52.1172308 72.0703515 51.1877363 72.0703515 49.0028571 66.3508959 48.9828132 66.3508959 48.9828132 72.0703515"></polygon>
                        <polygon id="Fill-23" fill="#273C79" points="57.0096264 72.0703515 57.0096264 65.4584296 60.7107692 65.4584296 60.7107692 66.2930533 57.9551209 66.2930533 57.9551209 68.2209941 60.4653187 68.2209941 60.4653187 69.055574 57.9551209 69.055574 57.9551209 71.2335385 60.7107692 71.2335385 60.7107692 72.0703515"></polygon>
                        <polygon id="Fill-24" fill="#273C79" points="62.2154286 72.0703515 62.2154286 65.4584296 63.162989 65.4584296 63.162989 71.2335385 65.9252747 71.2335385 65.9252747 72.0703515"></polygon>
                        <polygon id="Fill-25" fill="#273C79" points="67.0054066 72.0703515 67.0054066 65.4584296 70.7064176 65.4584296 70.7064176 66.2930533 67.9509011 66.2930533 67.9509011 68.2209941 70.4610549 68.2209941 70.4610549 69.055574 67.9509011 69.055574 67.9509011 71.2335385 70.7064176 71.2335385 70.7064176 72.0703515"></polygon>
                        <path d="M72.1636044,72.0703515 L72.1636044,65.4584296 L73.7843956,65.4584296 C74.577978,65.4584296 75.1690549,65.561329 75.5522198,65.7645444 C76.0829011,66.0430734 76.3462857,66.536071 76.3462857,67.2480036 C76.3462857,67.6386272 76.2167033,67.9692627 75.9625055,68.2438509 C75.7062418,68.5156805 75.3829011,68.685574 74.9882637,68.7569467 L74.9882637,68.7723598 C75.2511648,68.872632 75.4628571,69.0959456 75.6278681,69.4330178 L76.8763516,72.0703515 L75.7997802,72.0703515 L74.7874286,69.7767456 C74.6513407,69.4820592 74.4956044,69.2946509 74.3128352,69.2097479 C74.2055385,69.1584734 73.993978,69.136142 73.6772308,69.136142 L73.1133187,69.136142 L73.1133187,72.0703515 L72.1636044,72.0703515 Z M73.1133187,66.2930533 L73.1133187,68.3060284 L73.9181978,68.3060284 C74.3058462,68.3060284 74.6269451,68.2258544 74.8811429,68.0831089 C75.1908571,67.9039763 75.3448791,67.6342923 75.3448791,67.2703787 C75.3448791,66.6188722 74.9034286,66.2930533 74.0205275,66.2930533 L73.1133187,66.2930533 Z" id="Fill-26" fill="#273C79"></path>
                        <path d="M79.0021099,72.0694757 L78.0021099,72.0694757 L78.0021099,65.4572036 L79.0021099,65.4572036 L79.0021099,72.0694757 Z M78.9947341,64.8729538 L78.003919,64.8729538 L78.003919,63.8777633 L78.9947341,63.8777633 L78.9947341,64.8729538 Z" id="Fill-27" fill="#273C79"></path>
                        <path d="M86.4068571,65.5809456 L86.2752967,66.4510367 C85.8094066,66.2701964 85.3944615,66.1787254 85.0331429,66.1787254 C84.2663736,66.1787254 83.8808352,66.4711349 83.8808352,67.0605953 C83.8808352,67.3928509 84.1259341,67.6941053 84.6162198,67.9599799 C85.474989,68.4214509 85.9296264,68.669329 85.9829451,68.7051905 C86.4737582,69.0843858 86.720967,69.5883302 86.720967,70.2136521 C86.720967,70.8897231 86.4781099,71.3959006 85.9899341,71.7378331 C85.5751648,72.0386935 85.0113407,72.1814391 84.3065934,72.1814391 C83.9653187,72.1814391 83.5151209,72.094697 82.9513407,71.9068947 L83.0443956,71.0276083 C83.572967,71.2422083 84.0301099,71.3494426 84.4224615,71.3494426 C84.768,71.3494426 85.0625495,71.2579716 85.3097582,71.0748982 C85.5817582,70.8809219 85.7178022,70.6103183 85.7178022,70.2692178 C85.7178022,69.8676911 85.4702418,69.5309692 84.9798242,69.2543231 C84.6766593,69.0996675 84.2216264,68.8610722 83.6131868,68.5375302 C83.1205275,68.1893361 82.8752088,67.7252817 82.8752088,67.142871 C82.8752088,66.5561692 83.0894945,66.0985515 83.5086593,65.7793006 C83.8963077,65.4917077 84.3937143,65.346729 84.9956484,65.346729 C85.4881758,65.346729 85.9589011,65.4246698 86.4068571,65.5809456" id="Fill-28" fill="#273C79"></path>
                        <path d="M87.2776703,72.0703515 L90.1002198,65.4584296 L91.0924396,65.4584296 L93.8858462,72.0703515 L92.8516484,72.0703515 L92.1805714,70.4034249 L88.9454505,70.4034249 L88.2721319,72.0703515 L87.2776703,72.0703515 Z M91.8772747,69.6270379 L90.5618901,66.3508959 L89.2486154,69.6270379 L91.8772747,69.6270379 Z" id="Fill-29" fill="#273C79"></path>
                        <polygon id="Fill-30" fill="#273C79" points="94.8327912 72.0703515 94.8327912 65.4584296 96.1189011 65.4584296 99.0351648 70.7829704 99.0508571 70.7829704 99.0508571 65.4584296 99.9963516 65.4584296 99.9963516 72.0703515 98.787956 72.0703515 95.799956 66.6324024 95.7781099 66.6324024 95.7781099 72.0703515"></polygon>
                        <path d="M100.946549,72.0703515 L103.769231,65.4584296 L104.761407,65.4584296 L107.554681,72.0703515 L106.522637,72.0703515 L105.851033,70.4034249 L102.609802,70.4034249 L101.938857,72.0703515 L100.946549,72.0703515 Z M105.546242,69.6270379 L104.230725,66.3508959 L102.915209,69.6270379 L105.546242,69.6270379 Z" id="Fill-31" fill="#273C79"></path>
                        <polygon id="Fill-32" fill="#273C79" points="110.354198 72.0703515 110.354198 69.307787 107.770374 65.4584296 108.876308 65.4584296 110.848967 68.4219325 112.76633 65.4584296 113.872264 65.4584296 111.301626 69.307787 111.301626 72.0703515"></polygon>
                        <path d="M115.82233,72.0694757 L114.82233,72.0694757 L114.82233,65.4572036 L115.82233,65.4572036 L115.82233,72.0694757 Z M115.812565,64.8729538 L114.82233,64.8729538 L114.82233,63.8777633 L115.812565,63.8777633 L115.812565,64.8729538 Z" id="Fill-33" fill="#273C79"></path>
                        <path d="M122.091868,65.6309941 L122.01622,66.5460982 C121.599209,66.3027302 121.144264,66.1779811 120.653978,66.1779811 C119.900044,66.1779811 119.282769,66.4213929 118.816879,66.9096615 C118.348396,67.3851882 118.118769,68.0056497 118.118769,68.7618071 C118.118769,69.5026828 118.346286,70.1209112 118.80989,70.6118071 C119.27578,71.102703 119.873363,71.3504497 120.604879,71.3504497 C121.208967,71.3504497 121.683692,71.2414639 122.045011,71.0268639 L122.09833,71.950813 C121.721802,72.1022722 121.219912,72.1850296 120.596176,72.1850296 C119.545802,72.1850296 118.698769,71.8680556 118.060923,71.2475503 C117.430066,70.6210024 117.117846,69.7815621 117.117846,68.735097 C117.117846,67.720071 117.445407,66.8965254 118.10778,66.2716852 C118.752088,65.6559089 119.583912,65.3477361 120.604879,65.3477361 C121.166593,65.3477361 121.663604,65.4392071 122.091868,65.6309941" id="Fill-34" fill="#273C79"></path>
                        <path d="M124.238418,72.0694757 L123.238418,72.0694757 L123.238418,65.4572036 L124.238418,65.4572036 L124.238418,72.0694757 Z M124.228653,64.8729538 L123.238418,64.8729538 L123.238418,63.8777633 L124.228653,63.8777633 L124.228653,64.8729538 Z" id="Fill-35" fill="#273C79"></path>
                        <polygon id="Fill-36" fill="#273C79" points="133.921011 65.4586923 131.392879 72.0709645 130.211165 72.0709645 127.725011 65.4586923 128.782022 65.4586923 130.817099 71.235903 130.835033 71.235903 132.92844 65.4586923"></polygon>
                        <polygon id="Fill-37" fill="#273C79" points="134.869846 72.0703515 134.869846 65.4584296 138.570813 65.4584296 138.570813 66.2930533 135.815297 66.2930533 135.815297 68.2209941 138.323736 68.2209941 138.323736 69.055574 135.815297 69.055574 135.815297 71.2335385 138.570813 71.2335385 138.570813 72.0703515"></polygon>
                        <path d="M143.719604,72.0694757 L142.719604,72.0694757 L142.719604,65.4572036 L143.719604,65.4572036 L143.719604,72.0694757 Z M143.710029,64.8729538 L142.721825,64.8729538 L142.721825,63.8777633 L143.710029,63.8777633 L143.710029,64.8729538 Z" id="Fill-38" fill="#273C79"></path>
                        <path d="M148.488835,65.5809456 L148.354505,66.4510367 C147.886901,66.2701964 147.47433,66.1787254 147.115121,66.1787254 C146.34611,66.1787254 145.960703,66.4711349 145.960703,67.0605953 C145.960703,67.3928509 146.207912,67.6941053 146.698198,67.9599799 C147.554462,68.4214509 148.011604,68.669329 148.060571,68.7051905 C148.551385,69.0843858 148.800835,69.5883302 148.800835,70.2136521 C148.800835,70.8897231 148.557495,71.3959006 148.071912,71.7378331 C147.652879,72.0386935 147.093319,72.1814391 146.38844,72.1814391 C146.042945,72.1814391 145.594989,72.094697 145.031077,71.9068947 L145.128484,71.0276083 C145.653055,71.2422083 146.109846,71.3494426 146.500088,71.3494426 C146.847956,71.3494426 147.142286,71.2579716 147.389495,71.0748982 C147.661231,70.8809219 147.797538,70.6103183 147.797538,70.2692178 C147.797538,69.8676911 147.55011,69.5309692 147.057451,69.2543231 C146.756396,69.0996675 146.301495,68.8610722 145.695165,68.5375302 C145.202154,68.1893361 144.957187,67.7252817 144.957187,67.142871 C144.957187,66.5561692 145.168879,66.0985515 145.592747,65.7793006 C145.973802,65.4917077 146.471209,65.346729 147.079341,65.346729 C147.570154,65.346729 148.040879,65.4246698 148.488835,65.5809456 Z M145.202154,73.9066024 L146.042945,72.5431195 L147.079341,72.5431195 L145.837714,73.9066024 L145.202154,73.9066024 Z" id="Fill-39" fill="#273C79"></path>
                        <path d="M149.359516,72.0703515 L152.179956,65.4584296 L153.172176,65.4584296 L155.965802,72.0703515 L154.933363,72.0703515 L154.262286,70.4034249 L151.023209,70.4034249 L150.35222,72.0703515 L149.359516,72.0703515 Z M153.959121,69.6270379 L152.646374,66.3508959 L151.328088,69.6270379 L153.959121,69.6270379 Z" id="Fill-40" fill="#273C79"></path>
                        <path d="M156.86444,72.0703515 L156.86444,65.4584296 L158.815648,65.4584296 C159.829802,65.4584296 160.665714,65.7418189 161.312264,66.3088166 C161.996967,66.911413 162.336,67.71 162.336,68.7053219 C162.336,69.7990769 162.021495,70.6398746 161.386286,71.2292036 C160.779473,71.7892391 159.918989,72.0703515 158.815648,72.0703515 L156.86444,72.0703515 Z M157.80989,66.2930533 L157.80989,71.2335385 L158.806462,71.2335385 C160.487648,71.2335385 161.332571,70.4081101 161.332571,68.7455183 C161.332571,68.0046426 161.109802,67.4109787 160.670198,66.9647893 C160.235736,66.5142213 159.649099,66.2930533 158.918066,66.2930533 L157.80989,66.2930533 Z" id="Fill-41" fill="#273C79"></path>
                        <path d="M163.026022,72.0703515 L165.84633,65.4584296 L166.840747,65.4584296 L169.632308,72.0703515 L168.601978,72.0703515 L167.928659,70.4034249 L164.694022,70.4034249 L164.022549,72.0703515 L163.026022,72.0703515 Z M167.625626,69.6270379 L166.312703,66.3508959 L164.994549,69.6270379 L167.625626,69.6270379 Z" id="Fill-42" fill="#273C79"></path>
                        <polygon id="Fill-43" fill="#273C79" points="170.598462 72.0703515 170.598462 65.4584296 172.161407 65.4584296 174.232879 70.9502805 176.26589 65.4584296 177.828615 65.4584296 177.828615 72.0703515 176.883648 72.0703515 176.883648 66.3508959 176.863429 66.3508959 174.676088 72.0703515 173.750945 72.0703515 171.561714 66.3508959 171.546022 66.3508959 171.546022 72.0703515"></polygon>
                        <polygon id="Fill-44" fill="#273C79" points="179.514549 72.0703515 179.514549 65.4584296 180.460044 65.4584296 180.460044 71.2335385 183.222505 71.2335385 183.222505 72.0703515"></polygon>
                        <path d="M183.527033,72.0703515 L186.347473,65.4584296 L187.341934,65.4584296 L190.135077,72.0703515 L189.100879,72.0703515 L188.427692,70.4034249 L185.192967,70.4034249 L184.521495,72.0703515 L183.527033,72.0703515 Z M188.129275,69.6270379 L186.813846,66.3508959 L185.49833,69.6270379 L188.129275,69.6270379 Z" id="Fill-45" fill="#273C79"></path>
                        <path d="M191.034066,72.0703515 L191.034066,65.4584296 L192.654989,65.4584296 C193.446418,65.4584296 194.037055,65.561329 194.422945,65.7645444 C194.953451,66.0430734 195.216879,66.536071 195.216879,67.2480036 C195.216879,67.6386272 195.087297,67.9692627 194.826637,68.2438509 C194.576791,68.5156805 194.251341,68.685574 193.852,68.7569467 L193.852,68.7723598 C194.122286,68.872632 194.331341,69.0959456 194.498945,69.4330178 L195.747033,72.0703515 L194.668264,72.0703515 L193.655868,69.7767456 C193.522066,69.4820592 193.363692,69.2946509 193.180791,69.2097479 C193.076264,69.1584734 192.864571,69.136142 192.547824,69.136142 L191.979516,69.136142 L191.979516,72.0703515 L191.034066,72.0703515 Z M191.979516,66.2930533 L191.979516,68.3060284 L192.781934,68.3060284 C193.17644,68.3060284 193.497538,68.2258544 193.749582,68.0831089 C194.057099,67.9039763 194.215473,67.6342923 194.215473,67.2703787 C194.215473,66.6188722 193.774505,66.2930533 192.886989,66.2930533 L191.979516,66.2930533 Z" id="Fill-46" fill="#273C79"></path>
                        <polygon id="Fill-47" fill="#273C79" points="196.87644 72.0694757 197.826242 72.0694757 197.826242 65.4572036 196.87644 65.4572036"></polygon>
                        <path d="M202.088176,72.0703515 L202.088176,65.4584296 L204.036659,65.4584296 C205.051165,65.4584296 205.885363,65.7418189 206.535912,66.3088166 C207.21622,66.911413 207.557011,67.71 207.557011,68.7053219 C207.557011,69.7990769 207.242857,70.6398746 206.612044,71.2292036 C205.998725,71.7892391 205.140396,72.0703515 204.036659,72.0703515 L202.088176,72.0703515 Z M203.035648,66.2930533 L203.035648,71.2335385 L204.027824,71.2335385 C205.710813,71.2335385 206.551736,70.4081101 206.551736,68.7455183 C206.551736,68.0046426 206.332923,67.4109787 205.891473,66.9647893 C205.457099,66.5142213 204.875209,66.2930533 204.141582,66.2930533 L203.035648,66.2930533 Z" id="Fill-48" fill="#273C79"></path>
                        <polygon id="Fill-49" fill="#273C79" points="209.024923 72.0703515 209.024923 65.4584296 212.726022 65.4584296 212.726022 66.2930533 209.970242 66.2930533 209.970242 68.2209941 212.480571 68.2209941 212.480571 69.055574 209.970242 69.055574 209.970242 71.2335385 212.726022 71.2335385 212.726022 72.0703515"></polygon>
                        <path d="M214.182857,72.0703515 L214.182857,65.4584296 L215.803648,65.4584296 C216.597714,65.4584296 217.188176,65.561329 217.574066,65.7645444 C218.104747,66.0430734 218.367253,66.536071 218.367253,67.2480036 C218.367253,67.6386272 218.235956,67.9692627 217.982242,68.2438509 C217.725451,68.5156805 217.402242,68.685574 217.003165,68.7569467 L217.003165,68.7723598 C217.270901,68.872632 217.482725,69.0959456 217.647604,69.4330178 L218.897934,72.0703515 L217.816923,72.0703515 L216.806769,69.7767456 C216.672967,69.4820592 216.514989,69.2946509 216.332176,69.2097479 C216.224923,69.1584734 216.015341,69.136142 215.699077,69.136142 L215.130418,69.136142 L215.130418,72.0703515 L214.182857,72.0703515 Z M215.130418,66.2930533 L215.130418,68.3060284 L215.935341,68.3060284 C216.325099,68.3060284 216.646681,68.2258544 216.900835,68.0831089 C217.210505,67.9039763 217.366242,67.6342923 217.366242,67.2703787 C217.366242,66.6188722 216.923165,66.2930533 216.039868,66.2930533 L215.130418,66.2930533 Z" id="Fill-50" fill="#273C79"></path>
                        <polygon id="Fill-51" fill="#273C79" points="220.015604 72.0703515 220.015604 65.4584296 221.301846 65.4584296 224.217978 70.7829704 224.234198 70.7829704 224.234198 65.4584296 225.181275 65.4584296 225.181275 72.0703515 223.970769 72.0703515 220.983385 66.6324024 220.961055 66.6324024 220.961055 72.0703515"></polygon>
                        <polygon id="Fill-52" fill="#273C79" points="226.906725 72.0703515 226.906725 65.4584296 230.602989 65.4584296 230.602989 66.2930533 227.851692 66.2930533 227.851692 68.2209941 230.360132 68.2209941 230.360132 69.055574 227.851692 69.055574 227.851692 71.2335385 230.602989 71.2335385 230.602989 72.0703515"></polygon>
                        <path d="M237.211253,65.6767953 L237.137846,66.632271 C236.67622,66.3305349 236.070418,66.1812213 235.320923,66.1812213 C234.569363,66.1812213 233.958198,66.4199041 233.483604,66.9106686 C233.015473,67.3927633 232.783604,68.0132249 232.783604,68.765529 C232.783604,69.5037775 233.013363,70.117671 233.474857,70.6107124 C233.940747,71.1059432 234.540967,71.349355 235.27411,71.349355 C235.601934,71.349355 235.956176,71.3113479 236.330681,71.2355089 L236.330681,69.227 L234.939912,69.227 L234.939912,68.4528462 L237.276044,68.4528462 L237.276044,71.8914817 C236.705495,72.0837503 236.032264,72.1839349 235.262901,72.1839349 C234.210637,72.1839349 233.361011,71.8695444 232.72589,71.2443101 C232.097319,70.6195136 231.780571,69.7804675 231.780571,68.7340024 C231.780571,67.7208154 232.110374,66.8976201 232.772747,66.2749254 C233.416571,65.6523183 234.248659,65.3465976 235.27411,65.3465976 C235.927253,65.3465976 236.576044,65.4557148 237.211253,65.6767953 Z M233.736044,63.7155325 L234.201407,63.7155325 C234.297626,64.2081799 234.629802,64.4564083 235.19622,64.4564083 C235.766769,64.4564083 236.094462,64.2081799 236.190286,63.7155325 L236.652176,63.7155325 C236.607209,64.1259041 236.460176,64.4450237 236.199516,64.6727598 C235.944835,64.891213 235.606154,65.0050154 235.19622,65.0050154 C234.785934,65.0050154 234.453363,64.891213 234.192703,64.6727598 C233.936264,64.4450237 233.782374,64.1259041 233.736044,63.7155325 L233.736044,63.7155325 Z" id="Fill-53" fill="#273C79"></path>
                        <path d="M239.955912,72.0694757 L238.956284,72.0694757 L238.956284,65.4572036 L239.955912,65.4572036 L239.955912,72.0694757 Z M239.94843,64.8729538 L238.955912,64.8729538 L238.955912,63.8777633 L239.94843,63.8777633 L239.94843,64.8729538 Z" id="Fill-54" fill="#273C79"></path>
                    </g>
                </g>
            </g>
        </g>
    </g>
</svg>