<?xml version="1.0" encoding="UTF-8"?>
<svg width="188px" height="58px" viewBox="0 0 188 58" version="1.1" xmlns="http://www.w3.org/2000/svg" xmlns:xlink="http://www.w3.org/1999/xlink">
    <title>LOGO</title>
    <g id="Page-1" stroke="none" stroke-width="1" fill="none" fill-rule="evenodd">
        <g id="ANA-SAYFA" transform="translate(-165.000000, -2462.000000)">
            <g id="FOOTER" transform="translate(0.000000, 2405.000000)">
                <g id="LOGO" transform="translate(165.000000, 57.000000)">
                    <g id="Group">
                        <g id="Group-13">
                            <path d="M57.2216918,43.5356923 L57.2216918,47.8275893 L63.2506266,47.8275893 L63.2506266,43.7432225 C62.5722892,43.8390426 61.8789165,43.903529 61.1542059,43.903529 C59.7376295,43.903529 58.4289377,43.7773704 57.2216918,43.5356923" id="Fill-1" fill="#DC2B1C"></path>
                            <polygon id="Fill-2" fill="#DC2B1C" points="35.5414734 4.60434201 29.5125729 4.60434201 29.5125729 8.92225325 35.5414734 8.92225325"></polygon>
                            <polygon id="Fill-3" fill="#DC2B1C" points="113.198395 4.60434201 119.22733 4.60434201 119.22733 8.92225325 113.198395 8.92225325"></polygon>
                            <polygon id="Fill-4" fill="#FFFFFF" points="136.580211 11.7917432 124.623753 43.4475598 119.251989 43.4475598 134.563385 4.30994911 138.748794 4.30994911 153.977786 43.5098154 148.37378 43.5098154"></polygon>
                            <path d="M28.9909251,23.6826355 C28.9909251,19.1405491 28.2106625,15.284613 26.6480137,12.112116 C24.8239075,8.39984142 22.0579857,6.05619527 18.3459672,5.08285917 C16.9462071,4.72301893 14.8795832,4.54246391 12.145787,4.54246391 L0.0836020147,4.54246391 L0.0836020147,9.12734675 L5.43050055,9.12734675 L5.43050055,9.13822604 L12.0478346,9.13822604 C14.8463958,9.13822604 16.8492137,9.39215621 18.0536513,9.89685917 C22.1556299,11.6303385 24.2062595,16.2160107 24.2062595,23.6550083 C24.2062595,29.3603893 23.0497022,33.4774627 20.7390877,36.0051645 C19.0461212,37.8468533 16.1976934,38.7673373 12.193359,38.7673373 L4.72342821,38.7673373 L4.72342821,13.4452923 L0.0836020147,13.4452923 L0.0836020147,43.2542722 L12.6827784,43.2542722 C14.7986183,43.2542722 16.6856401,43.0387799 18.3459672,42.6065598 C22.0247641,41.6330178 24.7918504,39.2365538 26.6480137,35.4155207 C28.2106625,32.1710213 28.9909251,28.2607917 28.9909251,23.6826355" id="Fill-5" fill="#FFFFFF"></path>
                            <path d="M186.929755,23.6826355 C186.929755,19.1405491 186.148602,15.284613 184.58681,12.112116 C182.762703,8.39984142 179.995994,6.05619527 176.284763,5.08285917 C174.885003,4.72301893 172.817625,4.54246391 170.084514,4.54246391 L158.022398,4.54246391 L158.022398,34.4573882 L162.662224,34.4573882 L162.662224,9.13822604 L169.986048,9.13822604 C172.785192,9.13822604 174.788044,9.39215621 175.992447,9.89685917 C180.09446,11.6303385 182.145055,16.2160107 182.145055,23.6550083 C182.145055,29.3603893 180.988498,33.4774627 178.677884,36.0051645 C176.984061,37.8468533 174.136489,38.7673373 170.132155,38.7673373 L163.369296,38.7673373 L163.369296,38.7759172 L158.022398,38.7759172 L158.022398,43.2542722 L170.621471,43.2542722 C172.737414,43.2542722 174.624436,43.0387799 176.284763,42.6065598 C179.962704,41.6330178 182.730098,39.2365538 184.58681,35.4155207 C186.148602,32.1710213 186.929755,28.2607917 186.929755,23.6826355" id="Fill-6" fill="#FFFFFF"></path>
                            <polygon id="Fill-7" fill="#FFFFFF" points="40.1804434 8.71630178 35.5414734 8.71630178 35.5414734 43.2552331 40.1804434 43.2552331"></polygon>
                            <polygon id="Fill-8" fill="#FFFFFF" points="40.1804434 0.28639645 35.5414734 0.28639645 35.5414734 4.60434201 40.1804434 4.60434201"></polygon>
                            <polygon id="Fill-9" fill="#FFFFFF" points="108.560042 8.71630178 113.199286 8.71630178 113.199286 43.2552331 108.560042 43.2552331"></polygon>
                            <polygon id="Fill-10" fill="#FFFFFF" points="108.560042 0.28639645 113.199286 0.28639645 113.199286 4.60434201 108.560042 4.60434201"></polygon>
                            <path d="M48.9539286,37.7401195 C51.2471445,41.8490935 55.3128533,43.9039408 61.1536236,43.9039408 C63.506844,43.9039408 65.617615,43.3986201 67.4829229,42.3902781 C69.2251738,41.4531491 70.6317152,40.0924485 71.7021703,38.3081763 C72.7719405,36.5236982 73.3077674,34.5326852 73.3077674,32.3334899 C73.3077674,28.0077882 71.4416033,24.8545101 67.7123233,22.8714935 C66.366163,22.1506118 63.9352658,21.3222414 60.4196658,20.384426 C57.9123588,19.7004379 56.2460038,19.1411325 55.4208064,18.7081231 C53.5546423,17.699884 52.6224507,16.2036556 52.6224507,14.2206391 C52.6224507,12.0945787 53.4787463,10.5264852 55.191406,9.51677041 C56.5058174,8.75951006 58.1569315,8.38154911 60.1445086,8.38154911 C65.0666842,8.38154911 67.7268791,10.8688225 68.1243397,15.8424426 L72.2986524,15.4644817 C72.2675885,13.2298 71.7327548,11.1930734 70.6932951,9.35430178 C68.6447203,5.71444142 65.0666842,3.89396213 59.9615158,3.89396213 C57.697891,3.89396213 55.6950731,4.32618225 53.9528907,5.19161775 C50.2532018,7.02953136 48.403854,10.1477349 48.403854,14.544787 C48.403854,18.1859172 49.9630436,20.9979905 53.0812857,22.9796686 C54.3660716,23.8094805 56.3683416,24.5839692 59.0899108,25.3044391 C61.963683,26.0978036 64.0120522,26.7643917 65.2353267,27.304787 C67.8036656,28.4587811 69.087013,30.2786769 69.087013,32.765813 C69.087013,33.9917065 68.7821962,35.0904118 68.1705418,36.0640225 C66.8242788,38.2267361 64.4246509,39.3082473 60.9705965,39.3082473 C59.0733,39.3082473 57.3925604,38.929703 55.9253297,38.1724426 C53.1732103,36.7668178 51.6139522,34.1715751 51.2471445,30.3867491 L47.1653729,30.8197586 C47.1949641,33.3793775 47.7913434,35.6853065 48.9539286,37.7401195" id="Fill-11" fill="#FFFFFF"></path>
                            <path d="M78.7516593,37.7401195 C81.0447725,41.8490935 85.1107553,43.9039408 90.9515256,43.9039408 C93.3045405,43.9039408 95.4153458,43.3986201 97.2806194,42.3902781 C99.0230758,41.4531491 100.429446,40.0924485 101.500072,38.3081763 C102.569055,36.5236982 103.105361,34.5326852 103.105361,32.3334899 C103.105361,28.0077882 101.239403,24.8545101 97.5102253,22.8714935 C96.1638595,22.1506118 93.7331678,21.3222414 90.2173623,20.384426 C87.7099868,19.7004379 86.0437346,19.1411325 85.2187084,18.7081231 C83.3525443,17.699884 82.4201473,16.2036556 82.4201473,14.2206391 C82.4201473,12.0945787 83.2766484,10.5264852 84.9891026,9.51677041 C86.3037194,8.75951006 87.9548335,8.38154911 89.9424106,8.38154911 C94.8645863,8.38154911 97.5245756,10.8688225 97.9220363,15.8424426 L102.096452,15.4644817 C102.065319,13.2298 101.530383,11.1930734 100.490992,9.35430178 C98.4426223,5.71444142 94.8645863,3.89396213 89.7592123,3.89396213 C87.495793,3.89396213 85.4929751,4.32618225 83.7505872,5.19161775 C80.0511038,7.02953136 78.2015505,10.1477349 78.2015505,14.544787 C78.2015505,18.1859172 79.7607401,20.9979905 82.8791535,22.9796686 C84.1639736,23.8094805 86.1660381,24.5839692 88.8878128,25.3044391 C91.7613795,26.0978036 93.8099542,26.7643917 95.0332288,27.304787 C97.6013621,28.4587811 98.8847438,30.2786769 98.8847438,32.765813 C98.8847438,33.9917065 98.5800982,35.0904118 97.9684438,36.0640225 C96.6220095,38.2267361 94.2225529,39.3082473 90.7683273,39.3082473 C88.871202,39.3082473 87.1902912,38.929703 85.7230604,38.1724426 C82.9711123,36.7668178 81.4118542,34.1715751 81.0447725,30.3867491 L76.9624872,30.8197586 C76.9928661,33.3793775 77.5892454,35.6853065 78.7516593,37.7401195" id="Fill-12" fill="#FFFFFF"></path>
                        </g>
                        <path d="M0.0836705128,56.4875728 L0.0836705128,51.3052556 L1.60354212,51.3052556 C2.39243553,51.3052556 3.04214066,51.5273716 3.5475544,51.9717751 C4.07937418,52.4440805 4.34316062,53.07 4.34316062,53.8501172 C4.34316062,54.7073846 4.10016337,55.3663882 3.60656557,55.8282947 C3.1323185,56.2672414 2.46360513,56.4875728 1.60354212,56.4875728 L0.0836705128,56.4875728 Z M0.820265568,51.9594201 L0.820265568,55.8316923 L1.5950826,55.8316923 C2.90630879,55.8316923 3.56491868,55.1847349 3.56491868,53.8816225 C3.56491868,53.3009361 3.39113883,52.835632 3.04707253,52.485916 C2.70660238,52.132768 2.253213,51.9594201 1.68361648,51.9594201 L0.820265568,51.9594201 Z" id="Fill-14" fill="#FFFFFF"></path>
                        <path d="M6.44991978,56.4868864 L5.44991978,56.4868864 L5.44991978,51.3042947 L6.44991978,51.3042947 L6.44991978,56.4868864 Z M6.44075651,50.8463692 L5.45228002,50.8463692 L5.45228002,50.066355 L6.44075651,50.066355 L6.44075651,50.8463692 Z" id="Fill-15" fill="#FFFFFF"></path>
                        <path d="M9.94333114,51.4012817 L9.84113187,52.083245 C9.47432418,51.9415053 9.15491722,51.8698118 8.8750337,51.8698118 C8.27584597,51.8698118 7.97681722,52.0989976 7.97681722,52.5610071 C7.97681722,52.8214237 8.1680641,53.057542 8.54843443,53.2659302 C9.21889451,53.6276237 9.57344103,53.8219065 9.61159451,53.8500142 C9.99199908,54.1472213 10.1867394,54.5422047 10.1867394,55.0323219 C10.1867394,55.5622154 9.99549249,55.9589491 9.61851282,56.2269503 C9.29191355,56.4627598 8.85592271,56.5746414 8.30718388,56.5746414 C8.04127399,56.5746414 7.68857692,56.5066544 7.25255183,56.359458 L7.32546813,55.6702876 C7.73556667,55.8384876 8.09001044,55.9225361 8.39379982,55.9225361 C8.66512106,55.9225361 8.89407619,55.8508426 9.08881648,55.7073527 C9.30074982,55.5553172 9.40298333,55.3432225 9.40298333,55.0758734 C9.40298333,54.7611633 9.21396264,54.4972462 8.82979066,54.2804154 C8.59388297,54.1591988 8.23902821,53.9721917 7.76865128,53.7186047 C7.38441081,53.4456959 7.19354066,53.0819775 7.19354066,52.6254935 C7.19354066,52.1656462 7.36023095,51.8069728 7.68683022,51.5567491 C7.98750293,51.3313385 8.37126392,51.2177065 8.84540824,51.2177065 C9.22958022,51.2177065 9.59433297,51.2787953 9.94333114,51.4012817 Z M7.38441081,57.9267964 L8.04127399,56.8581207 L8.84540824,56.8581207 L7.88136502,57.9267964 L7.38441081,57.9267964 Z" id="Fill-16" fill="#FFFFFF"></path>
                        <polygon id="Fill-17" fill="#FFFFFF" points="13.2513817 56.4875728 13.2513817 51.3052556 14.4691079 51.3052556 16.0846714 55.6096793 17.6707465 51.3052556 18.886726 51.3052556 18.886726 56.4875728 18.1504392 56.4875728 18.1504392 52.0047562 18.1347189 52.0047562 16.4320599 56.4875728 15.7077945 56.4875728 14.0036971 52.0047562 13.9914701 52.0047562 13.9914701 56.4875728"></polygon>
                        <path d="M19.6402744,56.4875728 L21.8357434,51.3052556 L22.6105604,51.3052556 L24.7872952,56.4875728 L23.9849077,56.4875728 L23.4565813,55.1810627 L20.936157,55.1810627 L20.4133789,56.4875728 L19.6402744,56.4875728 Z M23.2241328,54.5725432 L22.1991262,52.0047562 L21.1741196,54.5725432 L23.2241328,54.5725432 Z" id="Fill-18" fill="#FFFFFF"></path>
                        <polygon id="Fill-19" fill="#FFFFFF" points="25.5234793 56.4875728 25.5234793 51.3052556 26.2635678 51.3052556 26.2635678 55.8316923 28.413965 55.8316923 28.413965 56.4875728"></polygon>
                        <polygon id="Fill-20" fill="#FFFFFF" points="28.7993015 56.4875728 28.7993015 55.8213621 31.4692916 51.9594201 28.8879381 51.9594201 28.8879381 51.3052556 32.3170249 51.3052556 32.3170249 51.9717751 29.6555628 55.8316923 32.3620967 55.8316923 32.3620967 56.4875728"></polygon>
                        <polygon id="Fill-21" fill="#FFFFFF" points="33.3574778 56.4875728 33.3574778 51.3052556 36.241285 51.3052556 36.241285 51.9594201 34.0941756 51.9594201 34.0941756 53.4705089 36.0483599 53.4705089 36.0483599 54.1246391 34.0941756 54.1246391 34.0941756 55.8316923 36.241285 55.8316923 36.241285 56.4875728"></polygon>
                        <polygon id="Fill-22" fill="#FFFFFF" points="37.4290775 56.4875728 37.4290775 51.3052556 38.645057 51.3052556 40.2624015 55.6096793 41.8465244 51.3052556 43.0609284 51.3052556 43.0609284 56.4875728 42.3243676 56.4875728 42.3243676 52.0047562 42.3124147 52.0047562 40.608009 56.4875728 39.8837778 56.4875728 38.1813929 52.0047562 38.1657753 52.0047562 38.1657753 56.4875728"></polygon>
                        <polygon id="Fill-23" fill="#FFFFFF" points="44.4200005 56.4875728 44.4200005 51.3052556 47.3038077 51.3052556 47.3038077 51.9594201 45.1566984 51.9594201 45.1566984 53.4705089 47.1125608 53.4705089 47.1125608 54.1246391 45.1566984 54.1246391 45.1566984 55.8316923 47.3038077 55.8316923 47.3038077 56.4875728"></polygon>
                        <polygon id="Fill-24" fill="#FFFFFF" points="48.4761881 56.4875728 48.4761881 51.3052556 49.2144956 51.3052556 49.2144956 55.8316923 51.3667766 55.8316923 51.3667766 56.4875728"></polygon>
                        <polygon id="Fill-25" fill="#FFFFFF" points="52.2083793 56.4875728 52.2083793 51.3052556 55.0920837 51.3052556 55.0920837 51.9594201 52.9450771 51.9594201 52.9450771 53.4705089 54.9009053 53.4705089 54.9009053 54.1246391 52.9450771 54.1246391 52.9450771 55.8316923 55.0920837 55.8316923 55.0920837 56.4875728"></polygon>
                        <path d="M56.2274751,56.4875728 L56.2274751,51.3052556 L57.4903416,51.3052556 C58.1086745,51.3052556 58.569222,51.3859065 58.8677712,51.5451834 C59.2812604,51.7634899 59.486481,52.1498935 59.486481,52.7078947 C59.486481,53.0140592 59.3855147,53.2732059 59.1874522,53.4884237 C58.98778,53.7014793 58.7358438,53.8346391 58.4283555,53.8905799 L58.4283555,53.9026604 C58.6331993,53.9812521 58.7981429,54.1562817 58.9267139,54.4204734 L59.8994907,56.4875728 L59.0606621,56.4875728 L58.2718714,54.6898817 C58.1658363,54.4589112 58.0444918,54.3120237 57.9020841,54.2454781 C57.8184821,54.2052899 57.6536412,54.187787 57.4068423,54.187787 L56.9674608,54.187787 L56.9674608,56.4875728 L56.2274751,56.4875728 Z M56.9674608,51.9594201 L56.9674608,53.5371574 L57.5945958,53.5371574 C57.8966385,53.5371574 58.146828,53.4743183 58.3448905,53.3624367 C58.5862095,53.2220355 58.7062183,53.0106615 58.7062183,52.725432 C58.7062183,52.2147917 58.3622548,51.9594201 57.6743277,51.9594201 L56.9674608,51.9594201 Z" id="Fill-26" fill="#FFFFFF"></path>
                        <path d="M61.776644,56.4868864 L60.776644,56.4868864 L60.776644,51.3042947 L61.776644,51.3042947 L61.776644,56.4868864 Z M61.7692682,50.8463692 L60.7784531,50.8463692 L60.7784531,50.066355 L61.7692682,50.066355 L61.7692682,50.8463692 Z" id="Fill-27" fill="#FFFFFF"></path>
                        <path d="M67.3253429,51.4012817 L67.2228353,52.083245 C66.8598293,51.9415053 66.5365179,51.8698118 66.2549905,51.8698118 C65.6575495,51.8698118 65.3571507,52.0989976 65.3571507,52.5610071 C65.3571507,52.8214237 65.5481236,53.057542 65.9301379,53.2659302 C66.5992623,53.6276237 66.9535005,53.8219065 66.9950447,53.8500142 C67.37747,54.1472213 67.5700868,54.5422047 67.5700868,55.0323219 C67.5700868,55.5622154 67.3808606,55.9589491 67.0004903,56.2269503 C66.6773159,56.4627598 66.2380029,56.5746414 65.6888874,56.5746414 C65.4229775,56.5746414 65.0721984,56.5066544 64.6329196,56.359458 L64.7054249,55.6702876 C65.1172701,55.8384876 65.4734606,55.9225361 65.7791679,55.9225361 C66.0484,55.9225361 66.2779031,55.8508426 66.47052,55.7073527 C66.6824533,55.5553172 66.7884542,55.3432225 66.7884542,55.0758734 C66.7884542,54.7611633 66.5955634,54.4972462 66.2134463,54.2804154 C65.9772304,54.1591988 65.6226839,53.9721917 65.1486081,53.7186047 C64.7647443,53.4456959 64.5736002,53.0819775 64.5736002,52.6254935 C64.5736002,52.1656462 64.7405645,51.8069728 65.0671637,51.5567491 C65.3692064,51.3313385 65.756769,51.2177065 66.225776,51.2177065 C66.609537,51.2177065 66.9763104,51.2787953 67.3253429,51.4012817" id="Fill-28" fill="#FFFFFF"></path>
                        <path d="M68.0038515,56.4875728 L70.2030879,51.3052556 L70.9761925,51.3052556 L73.1527218,56.4875728 L72.3469093,56.4875728 L71.8240286,55.1810627 L69.3033302,55.1810627 L68.7787027,56.4875728 L68.0038515,56.4875728 Z M71.5877099,54.5725432 L70.562806,52.0047562 L69.5395462,54.5725432 L71.5877099,54.5725432 Z" id="Fill-29" fill="#FFFFFF"></path>
                        <polygon id="Fill-30" fill="#FFFFFF" points="73.8905498 56.4875728 73.8905498 51.3052556 74.8926438 51.3052556 77.1648993 55.4785444 77.1771262 55.4785444 77.1771262 51.3052556 77.913824 51.3052556 77.913824 56.4875728 76.9722824 56.4875728 74.6441324 52.2253964 74.6271106 52.2253964 74.6271106 56.4875728"></polygon>
                        <path d="M78.6541864,56.4875728 L80.8535256,51.3052556 L81.626596,51.3052556 L83.8030225,56.4875728 L82.9988883,56.4875728 L82.4755965,55.1810627 L79.9501375,55.1810627 L79.4273595,56.4875728 L78.6541864,56.4875728 Z M82.2381134,54.5725432 L81.2131068,52.0047562 L80.1881002,54.5725432 L82.2381134,54.5725432 Z" id="Fill-31" fill="#FFFFFF"></path>
                        <polygon id="Fill-32" fill="#FFFFFF" points="85.9843125 56.4875728 85.9843125 54.3223195 83.9710828 51.3052556 84.8327897 51.3052556 86.3698201 53.6280012 87.8637652 51.3052556 88.7254722 51.3052556 86.7225172 54.3223195 86.7225172 56.4875728"></polygon>
                        <path d="M90.4657319,56.4868864 L89.4657319,56.4868864 L89.4657319,51.3042947 L90.4657319,51.3042947 L90.4657319,56.4868864 Z M90.4559676,50.8463692 L89.4657319,50.8463692 L89.4657319,50.066355 L90.4559676,50.066355 L90.4559676,50.8463692 Z" id="Fill-33" fill="#FFFFFF"></path>
                        <path d="M95.1299139,51.4405089 L95.0709712,52.1577527 C94.7460502,51.9670047 94.3915722,51.8692284 94.0095579,51.8692284 C93.4221176,51.8692284 92.9411577,52.0600107 92.5781516,52.4427077 C92.2131249,52.8154178 92.0342077,53.3017254 92.0342077,53.8943893 C92.0342077,54.4750757 92.211481,54.9596331 92.572706,55.3443893 C92.9357121,55.7291456 93.4013284,55.9233254 93.9713016,55.9233254 C94.4419868,55.9233254 94.8118769,55.8379041 95.0934044,55.6697041 L95.1349485,56.3938805 C94.8415709,56.5125917 94.4505148,56.5774556 93.9645203,56.5774556 C93.1461042,56.5774556 92.4861244,56.3290166 91.9891359,55.8426746 C91.497593,55.3515964 91.2543218,54.6936568 91.2543218,53.8734544 C91.2543218,53.0778935 91.509546,52.4324118 92.0256454,51.9426722 C92.5276685,51.4600367 93.1757982,51.2184959 93.9713016,51.2184959 C94.4089707,51.2184959 94.7962251,51.2901893 95.1299139,51.4405089" id="Fill-34" fill="#FFFFFF"></path>
                        <path d="M97.023267,56.4868864 L96.023267,56.4868864 L96.023267,51.3042947 L97.023267,51.3042947 L97.023267,56.4868864 Z M97.0135028,50.8463692 L96.023267,50.8463692 L96.023267,50.066355 L97.0135028,50.066355 L97.0135028,50.8463692 Z" id="Fill-35" fill="#FFFFFF"></path>
                        <polygon id="Fill-36" fill="#FFFFFF" points="104.346788 51.3054615 102.376952 56.4880533 101.456199 56.4880533 99.5190711 51.3054615 100.342659 51.3054615 101.928323 55.8335456 101.942297 55.8335456 103.573409 51.3054615"></polygon>
                        <polygon id="Fill-37" fill="#FFFFFF" points="105.086088 56.4875728 105.086088 51.3052556 107.969759 51.3052556 107.969759 51.9594201 105.822752 51.9594201 105.822752 53.4705089 107.777245 53.4705089 107.777245 54.1246391 105.822752 54.1246391 105.822752 55.8316923 107.969759 55.8316923 107.969759 56.4875728"></polygon>
                        <path d="M112.202358,56.4868864 L111.202358,56.4868864 L111.202358,51.3042947 L112.202358,51.3042947 L112.202358,56.4868864 Z M112.192783,50.8463692 L111.204579,50.8463692 L111.204579,50.066355 L112.192783,50.066355 L112.192783,50.8463692 Z" id="Fill-38" fill="#FFFFFF"></path>
                        <path d="M115.697551,51.4012817 L115.592886,52.083245 C115.228544,51.9415053 114.907082,51.8698118 114.627198,51.8698118 C114.028011,51.8698118 113.727715,52.0989976 113.727715,52.5610071 C113.727715,52.8214237 113.920332,53.057542 114.302346,53.2659302 C114.969518,53.6276237 115.325708,53.8219065 115.363862,53.8500142 C115.746287,54.1472213 115.940651,54.5422047 115.940651,55.0323219 C115.940651,55.5622154 115.751048,55.9589491 115.372698,56.2269503 C115.046202,56.4627598 114.610211,56.5746414 114.060992,56.5746414 C113.791795,56.5746414 113.442762,56.5066544 113.003381,56.359458 L113.079277,55.6702876 C113.488005,55.8384876 113.843922,55.9225361 114.147985,55.9225361 C114.419032,55.9225361 114.648364,55.8508426 114.840981,55.7073527 C115.052709,55.5553172 115.158915,55.3432225 115.158915,55.0758734 C115.158915,54.7611633 114.966127,54.4972462 114.582264,54.2804154 C114.347692,54.1591988 113.993248,53.9721917 113.520816,53.7186047 C113.136678,53.4456959 112.945808,53.0819775 112.945808,52.6254935 C112.945808,52.1656462 113.110752,51.8069728 113.441016,51.5567491 C113.737921,51.3313385 114.125484,51.2177065 114.59932,51.2177065 C114.981745,51.2177065 115.348518,51.2787953 115.697551,51.4012817 Z M113.136678,57.9267964 L113.791795,56.8581207 L114.59932,56.8581207 L113.631886,57.9267964 L113.136678,57.9267964 Z" id="Fill-39" fill="#FFFFFF"></path>
                        <path d="M116.375957,56.4875728 L118.573549,51.3052556 L119.346654,51.3052556 L121.523354,56.4875728 L120.718912,56.4875728 L120.196031,55.1810627 L117.67225,55.1810627 L117.149438,56.4875728 L116.375957,56.4875728 Z M119.959815,54.5725432 L118.936966,52.0047562 L117.909802,54.5725432 L119.959815,54.5725432 Z" id="Fill-40" fill="#FFFFFF"></path>
                        <path d="M122.223542,56.4875728 L122.223542,51.3052556 L123.743859,51.3052556 C124.534054,51.3052556 125.185369,51.5273716 125.689139,51.9717751 C126.222637,52.4440805 126.4868,53.07 126.4868,53.8501172 C126.4868,54.7073846 126.241748,55.3663882 125.746814,55.8282947 C125.274006,56.2672414 124.603546,56.4875728 123.743859,56.4875728 L122.223542,56.4875728 Z M122.960206,51.9594201 L122.960206,55.8316923 L123.736701,55.8316923 C125.046626,55.8316923 125.704962,55.1847349 125.704962,53.8816225 C125.704962,53.3009361 125.531388,52.835632 125.188862,52.485916 C124.850345,52.132768 124.393256,51.9594201 123.82366,51.9594201 L122.960206,51.9594201 Z" id="Fill-41" fill="#FFFFFF"></path>
                        <path d="M127.024442,56.4875728 L129.221932,51.3052556 L129.996749,51.3052556 L132.17184,56.4875728 L131.369041,56.4875728 L130.844414,55.1810627 L128.324092,55.1810627 L127.800903,56.4875728 L127.024442,56.4875728 Z M130.608301,54.5725432 L129.585315,52.0047562 L128.558253,54.5725432 L130.608301,54.5725432 Z" id="Fill-42" fill="#FFFFFF"></path>
                        <polygon id="Fill-43" fill="#FFFFFF" points="132.924635 56.4875728 132.924635 51.3052556 134.142429 51.3052556 135.756452 55.6096793 137.340506 51.3052556 138.558129 51.3052556 138.558129 56.4875728 137.821843 56.4875728 137.821843 52.0047562 137.806088 52.0047562 136.101785 56.4875728 135.380945 56.4875728 133.675169 52.0047562 133.662942 52.0047562 133.662942 56.4875728"></polygon>
                        <polygon id="Fill-44" fill="#FFFFFF" points="139.871753 56.4875728 139.871753 51.3052556 140.608451 51.3052556 140.608451 55.8316923 142.760869 55.8316923 142.760869 56.4875728"></polygon>
                        <path d="M142.998147,56.4875728 L145.195739,51.3052556 L145.97059,51.3052556 L148.146914,56.4875728 L147.341102,56.4875728 L146.816577,55.1810627 L144.296187,55.1810627 L143.772998,56.4875728 L142.998147,56.4875728 Z M146.58406,54.5725432 L145.559122,52.0047562 L144.534115,54.5725432 L146.58406,54.5725432 Z" id="Fill-45" fill="#FFFFFF"></path>
                        <path d="M148.847376,56.4875728 L148.847376,51.3052556 L150.110346,51.3052556 C150.727,51.3052556 151.187205,51.3859065 151.487878,51.5451834 C151.90123,51.7634899 152.106485,52.1498935 152.106485,52.7078947 C152.106485,53.0140592 152.005519,53.2732059 151.802422,53.4884237 C151.60775,53.7014793 151.35417,53.8346391 151.043017,53.8905799 L151.043017,53.9026604 C151.253614,53.9812521 151.416503,54.1562817 151.547095,54.4204734 L152.519563,56.4875728 L151.679022,56.4875728 L150.890197,54.6898817 C150.785943,54.4589112 150.662544,54.3120237 150.520033,54.2454781 C150.438589,54.2052899 150.273645,54.187787 150.026846,54.187787 L149.58404,54.187787 L149.58404,56.4875728 L148.847376,56.4875728 Z M149.58404,51.9594201 L149.58404,53.5371574 L150.209257,53.5371574 C150.516642,53.5371574 150.766832,53.4743183 150.963216,53.3624367 C151.202823,53.2220355 151.326222,53.0106615 151.326222,52.725432 C151.326222,52.2147917 150.982636,51.9594201 150.291112,51.9594201 L149.58404,51.9594201 Z" id="Fill-46" fill="#FFFFFF"></path>
                        <polygon id="Fill-47" fill="#FFFFFF" points="153.399559 56.4868864 154.139613 56.4868864 154.139613 51.3042947 153.399559 51.3042947"></polygon>
                        <path d="M157.46037,56.4875728 L157.46037,51.3052556 L158.978564,51.3052556 C159.769033,51.3052556 160.419012,51.5273716 160.925898,51.9717751 C161.455971,52.4440805 161.721504,53.07 161.721504,53.8501172 C161.721504,54.7073846 161.476726,55.3663882 160.985218,55.8282947 C160.50734,56.2672414 159.838558,56.4875728 158.978564,56.4875728 L157.46037,56.4875728 Z M158.198609,51.9594201 L158.198609,55.8316923 L158.97168,55.8316923 C160.283009,55.8316923 160.938228,55.1847349 160.938228,53.8816225 C160.938228,53.3009361 160.767736,52.835632 160.423772,52.485916 C160.085323,52.132768 159.631934,51.9594201 159.060316,51.9594201 L158.198609,51.9594201 Z" id="Fill-48" fill="#FFFFFF"></path>
                        <polygon id="Fill-49" fill="#FFFFFF" points="162.865253 56.4875728 162.865253 51.3052556 165.749025 51.3052556 165.749025 51.9594201 163.601813 51.9594201 163.601813 53.4705089 165.557779 53.4705089 165.557779 54.1246391 163.601813 54.1246391 163.601813 55.8316923 165.749025 55.8316923 165.749025 56.4875728"></polygon>
                        <path d="M166.884143,56.4875728 L166.884143,51.3052556 L168.147009,51.3052556 C168.765719,51.3052556 169.225787,51.3859065 169.52646,51.5451834 C169.939949,51.7634899 170.144484,52.1498935 170.144484,52.7078947 C170.144484,53.0140592 170.042182,53.2732059 169.844497,53.4884237 C169.644414,53.7014793 169.39258,53.8346391 169.081633,53.8905799 L169.081633,53.9026604 C169.290244,53.9812521 169.45529,54.1562817 169.583758,54.4204734 L170.557974,56.4875728 L169.715686,56.4875728 L168.928608,54.6898817 C168.824353,54.4589112 168.701262,54.3120237 168.55882,54.2454781 C168.475253,54.2052899 168.311953,54.187787 168.065531,54.187787 L167.62245,54.187787 L167.62245,56.4875728 L166.884143,56.4875728 Z M167.62245,51.9594201 L167.62245,53.5371574 L168.24962,53.5371574 C168.553306,53.5371574 168.803873,53.4743183 169.001901,53.3624367 C169.243186,53.2220355 169.36453,53.0106615 169.36453,52.725432 C169.36453,52.2147917 169.019299,51.9594201 168.331064,51.9594201 L167.62245,51.9594201 Z" id="Fill-50" fill="#FFFFFF"></path>
                        <polygon id="Fill-51" fill="#FFFFFF" points="171.428825 56.4875728 171.428825 51.3052556 172.431022 51.3052556 174.703175 55.4785444 174.715812 55.4785444 174.715812 51.3052556 175.453743 51.3052556 175.453743 56.4875728 174.510558 56.4875728 172.182887 52.2253964 172.165489 52.2253964 172.165489 56.4875728"></polygon>
                        <polygon id="Fill-52" fill="#FFFFFF" points="176.798157 56.4875728 176.798157 51.3052556 179.678162 51.3052556 179.678162 51.9594201 177.534444 51.9594201 177.534444 53.4705089 179.488936 53.4705089 179.488936 54.1246391 177.534444 54.1246391 177.534444 55.8316923 179.678162 55.8316923 179.678162 56.4875728"></polygon>
                        <path d="M184.827101,51.4764071 L184.769905,52.2252935 C184.410221,51.9887976 183.9382,51.871768 183.354219,51.871768 C182.768628,51.871768 182.292429,52.0588438 181.922642,52.443497 C181.557889,52.821355 181.377225,53.3076627 181.377225,53.8973065 C181.377225,54.4759337 181.556245,54.9570935 181.915826,55.3435314 C182.278832,55.7316852 182.746503,55.9224675 183.317744,55.9224675 C183.573174,55.9224675 183.849187,55.8926781 184.140989,55.8332367 L184.140989,54.259 L183.057348,54.259 L183.057348,53.6522308 L184.877584,53.6522308 L184.877584,56.3473775 C184.433031,56.4980746 183.908472,56.5765976 183.30901,56.5765976 C182.489122,56.5765976 181.827121,56.3301834 181.332256,55.8401349 C180.842494,55.3504296 180.595695,54.6927988 180.595695,53.8725964 C180.595695,53.0784769 180.852666,52.4332698 181.368766,51.9452118 C181.870412,51.4572225 182.518747,51.2176036 183.317744,51.2176036 C183.826651,51.2176036 184.332168,51.3031278 184.827101,51.4764071 Z M182.119334,49.9392012 L182.481929,49.9392012 C182.556901,50.3253302 182.815721,50.5198876 183.257055,50.5198876 C183.701608,50.5198876 183.956935,50.3253302 184.031598,49.9392012 L184.391487,49.9392012 C184.35645,50.2608438 184.241887,50.5109645 184.03879,50.6894604 C183.840351,50.8606805 183.576462,50.9498769 183.257055,50.9498769 C182.937374,50.9498769 182.678245,50.8606805 182.475148,50.6894604 C182.275339,50.5109645 182.155433,50.2608438 182.119334,49.9392012 L182.119334,49.9392012 Z" id="Fill-53" fill="#FFFFFF"></path>
                        <path d="M187.186482,56.4868864 L186.186853,56.4868864 L186.186853,51.3042947 L187.186482,51.3042947 L187.186482,56.4868864 Z M187.178999,50.8463692 L186.186482,50.8463692 L186.186482,50.066355 L187.178999,50.066355 L187.178999,50.8463692 Z" id="Fill-54" fill="#FFFFFF"></path>
                    </g>
                </g>
            </g>
        </g>
    </g>
</svg>